<svg xmlns="http://www.w3.org/2000/svg" viewBox="-780 -7311.131 300 128.465">
  <defs>
    <style>
      .cls-1 {
        fill: #f29021;
      }

      .cls-2 {
        fill: #e92328;
      }
    </style>
  </defs>
  <g id="logo-sabores" transform="translate(-1590 -7393)">
    <g id="Group_530" data-name="Group 530" transform="translate(810 81.871)">
      <g id="Group_529" data-name="Group 529" transform="translate(25.563 -0.003)">
        <path id="Path_248" data-name="Path 248" class="cls-1" d="M88.821,29.708A17.71,17.71,0,0,0,83.564,27.4c-1.795-.513-3.846-1.026-6.026-1.667l-5.769-1.41A24.1,24.1,0,0,1,66.9,22.656a9.654,9.654,0,0,1-3.333-2.564,6.909,6.909,0,0,1-1.154-4.231A8.763,8.763,0,0,1,63.436,11.5a10.308,10.308,0,0,1,2.949-2.821,14.3,14.3,0,0,1,4.1-1.538,27.678,27.678,0,0,1,4.487-.385,21.852,21.852,0,0,1,5.256.641,11.017,11.017,0,0,1,4.1,1.923,9.673,9.673,0,0,1,2.692,3.333A12.9,12.9,0,0,1,88.179,17.4l.128,1.41h4.744l-.128-1.538a16.339,16.339,0,0,0-1.667-6.538,14.777,14.777,0,0,0-3.974-4.872,20.835,20.835,0,0,0-5.641-2.692A28.264,28.264,0,0,0,74.846,2.4a33.427,33.427,0,0,0-6.154.641,14.6,14.6,0,0,0-5.641,2.308,12.942,12.942,0,0,0-4.1,4.231,13,13,0,0,0-1.667,6.538,10.936,10.936,0,0,0,1.538,6.154,12.672,12.672,0,0,0,3.974,3.846A20.557,20.557,0,0,0,68.179,28.3c2.051.513,3.846,1.026,5.769,1.41L79.59,30.99a24.1,24.1,0,0,1,4.872,1.667,8.928,8.928,0,0,1,3.333,2.821,8.2,8.2,0,0,1,1.282,4.615,9.124,9.124,0,0,1-1.026,4.359A9.481,9.481,0,0,1,85.487,47.4a13.225,13.225,0,0,1-3.846,1.795,18.875,18.875,0,0,1-4.615.513,26.591,26.591,0,0,1-6.41-.769,16.965,16.965,0,0,1-5.128-2.308,10.5,10.5,0,0,1-3.333-4.1,14.75,14.75,0,0,1-1.282-5.769V35.221H56v1.538a15.864,15.864,0,0,0,1.795,7.692,15.3,15.3,0,0,0,4.744,5.513,19.843,19.843,0,0,0,6.667,3.077,29.8,29.8,0,0,0,7.564.9,24.806,24.806,0,0,0,6.282-.769,19.5,19.5,0,0,0,5.513-2.436,13.4,13.4,0,0,0,3.974-4.487,12.978,12.978,0,0,0,1.41-6.538,13.55,13.55,0,0,0-1.41-6.41A14.233,14.233,0,0,0,88.821,29.708Z" transform="translate(-9.768 0.68)"/>
        <path id="Path_249" data-name="Path 249" class="cls-1" d="M114.087,20.033a11.567,11.567,0,0,0-2.564-1.795,13.527,13.527,0,0,0-6.41-1.538,16.063,16.063,0,0,0-6.795,1.41,14.431,14.431,0,0,0-4.872,3.846A16.289,16.289,0,0,0,90.5,27.469a21.79,21.79,0,0,0-.9,6.538,20.159,20.159,0,0,0,1.026,6.282,14.526,14.526,0,0,0,2.949,5.128,13.451,13.451,0,0,0,10.9,4.872,13.2,13.2,0,0,0,6.923-1.667,9.6,9.6,0,0,0,2.564-1.923v2.949H118.7V17.469h-4.744v2.564Zm0,18.077a7.48,7.48,0,0,1-.769,3.333,7.891,7.891,0,0,1-2.051,2.564,9.682,9.682,0,0,1-2.949,1.667,11.061,11.061,0,0,1-3.59.513,10.03,10.03,0,0,1-4.487-.9,9.157,9.157,0,0,1-3.205-2.564,9.888,9.888,0,0,1-1.923-3.846,14.635,14.635,0,0,1-.641-4.744,20.108,20.108,0,0,1,.641-4.744,12.672,12.672,0,0,1,1.923-4.231,12.262,12.262,0,0,1,3.333-2.949,10.64,10.64,0,0,1,5.256-1.154,8.618,8.618,0,0,1,3.077.513,9.95,9.95,0,0,1,2.821,1.538,8.846,8.846,0,0,1,2.051,2.308,4.623,4.623,0,0,1,.769,2.564V38.11Z" transform="translate(-0.291 4.714)"/>
        <path id="Path_250" data-name="Path 250" class="cls-1" d="M27.709,32.2c-9.1.256-11.154,14.231-1.026,15.9,9.231,1.538,9.1,7.564,9.359,10.9h4.744V52.2C40.915,39.383,37.068,31.818,27.709,32.2Z" transform="translate(-19.939 9.082)"/>
        <path id="Path_251" data-name="Path 251" class="cls-1" d="M238.128,36.628a7.77,7.77,0,0,0-2.436-2.564,13.259,13.259,0,0,0-3.333-1.538c-1.154-.385-2.308-.641-3.462-1.026-1.154-.256-2.308-.513-3.59-.769a35.368,35.368,0,0,1-3.462-1.026,5.528,5.528,0,0,1-2.436-1.667,3.763,3.763,0,0,1-.9-2.436,4.147,4.147,0,0,1,.256-1.154,3.225,3.225,0,0,1,.9-1.538,5.827,5.827,0,0,1,2.179-1.41,11.435,11.435,0,0,1,4.1-.641,9.317,9.317,0,0,1,5.769,1.667c1.41,1.026,2.051,2.692,2.051,5v1.154h4.615V27.4a11.8,11.8,0,0,0-.9-4.872,9.04,9.04,0,0,0-2.692-3.462,10.442,10.442,0,0,0-3.974-1.923,18.686,18.686,0,0,0-4.872-.641,15.419,15.419,0,0,0-5.128.769,14.493,14.493,0,0,0-3.718,1.923,8.419,8.419,0,0,0-2.308,2.949,7.48,7.48,0,0,0-.769,3.333,8.762,8.762,0,0,0,1.026,4.359,7.732,7.732,0,0,0,2.692,2.692,14.1,14.1,0,0,0,3.718,1.538c1.282.385,2.692.641,3.974,1.026l3.718.9a15.826,15.826,0,0,1,2.949,1.026,5.219,5.219,0,0,1,1.795,1.538,3.807,3.807,0,0,1,.641,2.308,4.427,4.427,0,0,1-.641,2.308,5.586,5.586,0,0,1-1.795,1.667,15.28,15.28,0,0,1-2.564,1.026,11.434,11.434,0,0,1-2.821.385c-2.949,0-5.256-.641-6.795-1.923s-2.308-3.205-2.308-5.9V37.269H213v1.154c0,4.1,1.282,7.179,3.718,9.1s5.769,2.821,9.872,2.821a17.55,17.55,0,0,0,4.359-.513,12.377,12.377,0,0,0,3.974-1.667A9.687,9.687,0,0,0,238,45.218a8.854,8.854,0,0,0,1.282-4.615A12.041,12.041,0,0,0,238.128,36.628Z" transform="translate(34.514 4.657)"/>
        <path id="Path_252" data-name="Path 252" class="cls-1" d="M187.344,17.3h-.513a13.566,13.566,0,0,0-7.308,2.051,11.981,11.981,0,0,0-2.308,2.051V17.941H172.6V50.249h4.615V32.172a14.449,14.449,0,0,1,.641-4.1,9.26,9.26,0,0,1,1.795-3.333,8.28,8.28,0,0,1,2.821-2.308,9.422,9.422,0,0,1,3.846-.9h.513l3.205-3.846-1.923-.385Z" transform="translate(23.119 4.883)"/>
        <path id="Path_253" data-name="Path 253" class="cls-1" d="M210.174,37.982a8.487,8.487,0,0,1-.9,3.333,9.6,9.6,0,0,1-1.923,2.564,10.249,10.249,0,0,1-2.82,1.667,9.825,9.825,0,0,1-3.462.513,9.988,9.988,0,0,1-3.974-.769,8.131,8.131,0,0,1-2.949-2.051,12.884,12.884,0,0,1-2.051-3.077,11.256,11.256,0,0,1-.9-2.949l23.59-8.59-.128-.9a13.834,13.834,0,0,0-1.41-4.615,11.133,11.133,0,0,0-2.949-3.462,14.957,14.957,0,0,0-3.974-2.179,14.159,14.159,0,0,0-4.744-.769,16.5,16.5,0,0,0-6.795,1.41,13.018,13.018,0,0,0-4.872,3.846,16.038,16.038,0,0,0-2.821,5.513,21.79,21.79,0,0,0-.9,6.538,19.357,19.357,0,0,0,1.026,6.154,16.514,16.514,0,0,0,2.821,5.128,13.451,13.451,0,0,0,10.9,4.872,14.265,14.265,0,0,0,9.359-3.205,13.352,13.352,0,0,0,4.359-8.974l.128-1.282H210.3Zm-19.1-4.872a16.282,16.282,0,0,1,.641-4.359,12.734,12.734,0,0,1,1.923-3.974,9.245,9.245,0,0,1,3.205-2.692,10.788,10.788,0,0,1,4.744-1.026,8.068,8.068,0,0,1,5.256,1.667,7.418,7.418,0,0,1,2.564,3.59Z" transform="translate(26.955 4.714)"/>
        <path id="Path_254" data-name="Path 254" class="cls-1" d="M170.982,21.956a15.643,15.643,0,0,0-4.744-3.846,15.862,15.862,0,0,0-13.077,0,12.6,12.6,0,0,0-4.744,3.846,15.431,15.431,0,0,0-2.821,5.385,20.128,20.128,0,0,0-.9,6.282,20.687,20.687,0,0,0,.9,6.282,15.431,15.431,0,0,0,2.821,5.385,13.621,13.621,0,0,0,4.744,3.718,15.3,15.3,0,0,0,6.538,1.41,14.315,14.315,0,0,0,6.41-1.41,13.621,13.621,0,0,0,4.744-3.718,15.43,15.43,0,0,0,2.821-5.385,20.8,20.8,0,0,0,1.026-6.282,20.8,20.8,0,0,0-1.026-6.282A13.338,13.338,0,0,0,170.982,21.956Zm-1.538,16.41a12.733,12.733,0,0,1-1.923,3.974,9.245,9.245,0,0,1-3.205,2.692,10.328,10.328,0,0,1-8.974,0,8.218,8.218,0,0,1-3.205-2.692,11.441,11.441,0,0,1-1.923-3.974,19.246,19.246,0,0,1-.641-4.744,19.246,19.246,0,0,1,.641-4.744,10.442,10.442,0,0,1,1.923-3.974,9.245,9.245,0,0,1,3.205-2.692,10.329,10.329,0,0,1,8.974,0,10.879,10.879,0,0,1,3.205,2.692,10.442,10.442,0,0,1,1.923,3.974,14.635,14.635,0,0,1,.641,4.744A15.123,15.123,0,0,1,169.444,38.367Z" transform="translate(15.25 4.714)"/>
        <path id="Path_255" data-name="Path 255" class="cls-1" d="M143.256,26.667a14.431,14.431,0,0,0-4.872-3.846,15.893,15.893,0,0,0-6.667-1.41,13.526,13.526,0,0,0-6.41,1.538,12.988,12.988,0,0,0-2.564,1.795V11.026c0-1.538.128-3.333,1.923-3.718C129.41,6.539,128.385,0,124.154,0,119.923-.127,118,3.334,118,9.36v3.077h0V54.36h4.615V51.411a12.192,12.192,0,0,0,2.564,1.923A13.51,13.51,0,0,0,132.1,55a13.958,13.958,0,0,0,11.026-4.872A18.45,18.45,0,0,0,146.077,45a20.159,20.159,0,0,0,1.026-6.282,21.79,21.79,0,0,0-.9-6.538A16.288,16.288,0,0,0,143.256,26.667Zm-1.538,16.795a11.158,11.158,0,0,1-2.051,3.846,10.488,10.488,0,0,1-3.205,2.564,10.03,10.03,0,0,1-4.487.9,11.061,11.061,0,0,1-3.59-.513,8.382,8.382,0,0,1-2.949-1.667,6.749,6.749,0,0,1-2.051-2.564,7.1,7.1,0,0,1-.769-3.333V32.437a4.623,4.623,0,0,1,.769-2.564,6.634,6.634,0,0,1,2.051-2.179,9.95,9.95,0,0,1,2.821-1.538,8.618,8.618,0,0,1,3.077-.513,10.124,10.124,0,0,1,5.128,1.154,9.383,9.383,0,0,1,3.333,2.949,12.672,12.672,0,0,1,1.923,4.231,20.108,20.108,0,0,1,.641,4.744A14.167,14.167,0,0,1,141.718,43.462Z" transform="translate(7.719 0.003)"/>
      </g>
      <path id="Path_256" data-name="Path 256" class="cls-2" d="M55.128,56.88V52.265c0-7.949,3.205-12.692,8.974-12.564,5.641.128,7.051,9.872.641,9.872-5.256,0-4.231,5.128-4.359,7.179H55.128Zm5.256,45.513V64.06H55.256v38.333ZM46.667,64.06H41.795v36.282c0,6.667-2.564,12.564-10.128,12.564-6.282,0-8.974-4.1-9.359-10v-.769H17.821v.769a19.13,19.13,0,0,0,1.282,6.538,15.527,15.527,0,0,0,3.077,4.487,11.544,11.544,0,0,0,4.359,2.564,17.133,17.133,0,0,0,5.128.769c4.359,0,8.718-1.154,11.41-4.744,2.949-3.846,3.59-7.692,3.59-12.308V64.06ZM282.18,67.906a11.629,11.629,0,0,1,5.513,1.282,14.132,14.132,0,0,1,3.974,3.333,13.407,13.407,0,0,1,2.436,4.872,22.019,22.019,0,0,1,0,11.538,13.407,13.407,0,0,1-2.436,4.872,10.68,10.68,0,0,1-3.846,3.333,12.494,12.494,0,0,1-11.026,0,11.082,11.082,0,0,1-3.974-3.333,13.407,13.407,0,0,1-2.436-4.872,22.308,22.308,0,0,1-.769-5.769,21.594,21.594,0,0,1,.769-5.769,13.407,13.407,0,0,1,2.436-4.872,11.082,11.082,0,0,1,3.974-3.333A10.79,10.79,0,0,1,282.18,67.906Zm0,35.385a17.692,17.692,0,0,0,7.692-1.667,15.93,15.93,0,0,0,5.641-4.487,18.053,18.053,0,0,0,3.333-6.41,24.537,24.537,0,0,0,0-14.872,20.4,20.4,0,0,0-3.333-6.41,15.93,15.93,0,0,0-5.641-4.487,17.692,17.692,0,0,0-7.692-1.667,18.254,18.254,0,0,0-7.821,1.667,17.488,17.488,0,0,0-5.641,4.487,18.053,18.053,0,0,0-3.333,6.41,24.537,24.537,0,0,0,0,14.872,20.4,20.4,0,0,0,3.333,6.41,15.93,15.93,0,0,0,5.641,4.487A18.253,18.253,0,0,0,282.18,103.29Zm-31.41-.9H255.9V68.547h3.846V64.06H255.9V49.829l-5.128,5.641v8.59h-3.846v4.487h3.846ZM225.128,67.906a11.629,11.629,0,0,1,5.513,1.282,14.132,14.132,0,0,1,3.974,3.333,13.407,13.407,0,0,1,2.436,4.872,22.019,22.019,0,0,1,0,11.538,13.407,13.407,0,0,1-2.436,4.872,10.1,10.1,0,0,1-3.974,3.333,12.494,12.494,0,0,1-11.026,0,11.082,11.082,0,0,1-3.974-3.333,13.407,13.407,0,0,1-2.436-4.872,22.308,22.308,0,0,1-.769-5.769,21.594,21.594,0,0,1,.769-5.769,14.5,14.5,0,0,1,2.436-4.872,11.082,11.082,0,0,1,3.974-3.333A11.629,11.629,0,0,1,225.128,67.906Zm0,35.385a17.692,17.692,0,0,0,7.692-1.667,15.93,15.93,0,0,0,5.641-4.487,18.053,18.053,0,0,0,3.333-6.41,24.537,24.537,0,0,0,0-14.872,23.46,23.46,0,0,0-3.333-6.41,15.93,15.93,0,0,0-5.641-4.487,17.692,17.692,0,0,0-7.692-1.667,18.254,18.254,0,0,0-7.821,1.667,17.488,17.488,0,0,0-5.641,4.487,18.053,18.053,0,0,0-3.333,6.41,24.537,24.537,0,0,0,0,14.872,20.4,20.4,0,0,0,3.333,6.41,15.93,15.93,0,0,0,5.641,4.487A18.253,18.253,0,0,0,225.128,103.29ZM150.256,64.06h-5.128v38.333h5.128V80.983a16.923,16.923,0,0,1,.769-5,11.475,11.475,0,0,1,2.179-4.1,9.345,9.345,0,0,1,3.462-2.821,9.89,9.89,0,0,1,4.744-1.026c2.692,0,5.256.641,7.051,2.692a11.069,11.069,0,0,1,2.436,7.436v24.359h5.128V80.983a16.923,16.923,0,0,1,.769-5,13.676,13.676,0,0,1,2.051-4.1,9.345,9.345,0,0,1,3.462-2.821,10.577,10.577,0,0,1,4.744-1.026c2.692,0,5.256.641,7.051,2.692a11.069,11.069,0,0,1,2.436,7.436v24.359h5.128V77.265a14.312,14.312,0,0,0-3.718-10.256c-2.692-2.821-6.41-3.846-10.128-3.846a15.593,15.593,0,0,0-9.231,2.692,12.6,12.6,0,0,0-3.846,4.744v0a10.887,10.887,0,0,0-3.462-4.487,13.982,13.982,0,0,0-9.231-2.949,15.1,15.1,0,0,0-8.718,2.564,16.1,16.1,0,0,0-3.077,2.821l-.128.128V64.06Zm-28.462,3.846a11.629,11.629,0,0,1,5.513,1.282,14.132,14.132,0,0,1,3.974,3.333,13.407,13.407,0,0,1,2.436,4.872,22.019,22.019,0,0,1,0,11.538,13.407,13.407,0,0,1-2.436,4.872,11.082,11.082,0,0,1-3.974,3.333,12.494,12.494,0,0,1-11.026,0,11.082,11.082,0,0,1-3.974-3.333,13.407,13.407,0,0,1-2.436-4.872,22.019,22.019,0,0,1,0-11.538,13.407,13.407,0,0,1,2.436-4.872,11.082,11.082,0,0,1,3.974-3.333A11.629,11.629,0,0,1,121.795,67.906Zm0,35.385a17.692,17.692,0,0,0,7.692-1.667,15.93,15.93,0,0,0,5.641-4.487,18.053,18.053,0,0,0,3.333-6.41,24.537,24.537,0,0,0,0-14.872,23.459,23.459,0,0,0-3.333-6.41,15.93,15.93,0,0,0-5.641-4.487,17.692,17.692,0,0,0-7.692-1.667,18.254,18.254,0,0,0-7.821,1.667,17.488,17.488,0,0,0-5.641,4.487A18.053,18.053,0,0,0,105,75.854a24.537,24.537,0,0,0,0,14.872,20.4,20.4,0,0,0,3.333,6.41,15.93,15.93,0,0,0,5.641,4.487A18.253,18.253,0,0,0,121.795,103.29ZM73.205,64.06H68.077v38.333h5.128V80.983a16.923,16.923,0,0,1,.769-5,11.475,11.475,0,0,1,2.179-4.1,9.345,9.345,0,0,1,3.462-2.821,10.577,10.577,0,0,1,4.744-1.026c2.692,0,5.256.641,7.051,2.692a11.069,11.069,0,0,1,2.436,7.436v24.359h5.128V77.265a14.312,14.312,0,0,0-3.718-10.256c-2.692-2.821-6.41-3.846-10.128-3.846a15.1,15.1,0,0,0-8.718,2.564,16.1,16.1,0,0,0-3.077,2.821l-.128.128V64.06ZM28.59,75.983H5.256V66.239a31.881,31.881,0,0,1,.513-6.026,11.1,11.1,0,0,1,1.923-4.359,10.122,10.122,0,0,1,3.462-2.692,14.2,14.2,0,0,1,5.641-1.026,14.2,14.2,0,0,1,5.641,1.026A7.963,7.963,0,0,1,25.9,55.854a11.1,11.1,0,0,1,1.923,4.359,23.1,23.1,0,0,1,.641,5.9v9.872Zm0,26.538h5.256V64.572c0-4.487-1.026-9.231-4.231-12.564-3.333-3.462-8.077-4.487-12.564-4.487-4.615,0-9.231,1.026-12.564,4.359C1.026,55.342,0,59.957,0,64.572v38.077H5.256V80.726H28.59v21.795Z" transform="translate(0 11.198)"/>
    </g>
  </g>
</svg>
